<?xml version="1.0" encoding="UTF-8"?>
<svg version="1.1" xmlns="http://www.w3.org/2000/svg" width="32" height="32">
<path d="M0 0 C0.66 0.33 1.32 0.66 2 1 C2.66 0.67 3.32 0.34 4 0 C14.69131339 -1.18127798 14.69131339 -1.18127798 19.34375 1.19921875 C23.24549854 4.48098606 25.74544787 7.62638401 26.30078125 12.8046875 C26.34231806 23.68733154 26.34231806 23.68733154 23 28 C17.79560697 32.20780713 13.45482614 32.44214912 6.8671875 32.43359375 C2.31554728 31.74526669 -0.25107655 29.8529406 -3.25 26.4375 C-6.93925622 21.29889313 -6.60603522 16.17841098 -6 10 C-4.95049881 7.24563226 -3.7499752 5.40621591 -2 3 C-1.34 3 -0.68 3 0 3 C0 2.01 0 1.02 0 0 Z " fill="#C7F901" transform="translate(6,0)"/>
<path d="M0 0 C8.58 0 17.16 0 26 0 C26 0.66 26 1.32 26 2 C24.35 2 22.7 2 21 2 C21 2.66 21 3.32 21 4 C23.475 4.495 23.475 4.495 26 5 C25.67 6.65 25.34 8.3 25 10 C21.7 10 18.4 10 15 10 C15 7.36 15 4.72 15 2 C13.68 2 12.36 2 11 2 C11 3.65 11 5.3 11 7 C10.34 7 9.68 7 9 7 C8.67 5.68 8.34 4.36 8 3 C7.01 4.32 6.02 5.64 5 7 C7.97 7.495 7.97 7.495 11 8 C11 8.66 11 9.32 11 10 C7.37 10 3.74 10 0 10 C2 5 2 5 4 3 C2.68 2.67 1.36 2.34 0 2 C0 1.34 0 0.68 0 0 Z " fill="#343626" transform="translate(3,11)"/>
<path d="M0 0 C2.64 0 5.28 0 8 0 C7.38722388 2.96175123 6.74627478 4.38058783 5 7 C7.97 7.495 7.97 7.495 11 8 C11 8.66 11 9.32 11 10 C7.37 10 3.74 10 0 10 C2 5 2 5 4 3 C2.68 2.67 1.36 2.34 0 2 C0 1.34 0 0.68 0 0 Z " fill="#323327" transform="translate(3,11)"/>
<path d="M0 0 C0 0.66 0 1.32 0 2 C-1.98 2 -3.96 2 -6 2 C-6 2.99 -6 3.98 -6 5 C-5.01 5.33 -4.02 5.66 -3 6 C-3 6.66 -3 7.32 -3 8 C-4.98 8 -6.96 8 -9 8 C-9 5.69 -9 3.38 -9 1 C-6.04335481 -0.4783226 -3.25770263 -0.06032783 0 0 Z " fill="#61711B" transform="translate(29,11)"/>
<path d="M0 0 C2.97 0 5.94 0 9 0 C8.67 3.3 8.34 6.6 8 10 C7.67 10 7.34 10 7 10 C7 7.36 7 4.72 7 2 C5.68 2 4.36 2 3 2 C3 3.65 3 5.3 3 7 C2.34 7 1.68 7 1 7 C0.67 4.69 0.34 2.38 0 0 Z " fill="#454D22" transform="translate(11,11)"/>
<path d="M0 0 C0.33 0 0.66 0 1 0 C1 1.65 1 3.3 1 5 C1.66 5 2.32 5 3 5 C3 3.35 3 1.7 3 0 C4.32 0.33 5.64 0.66 7 1 C6.01 1 5.02 1 4 1 C4 3.31 4 5.62 4 8 C3.67 7.34 3.34 6.68 3 6 C0.69 6 -1.62 6 -4 6 C-1.125 1.125 -1.125 1.125 0 0 Z " fill="#A4C90A" transform="translate(11,13)"/>
<path d="" fill="#C9FC01" transform="translate(0,0)"/>
<path d="" fill="#C9FC01" transform="translate(0,0)"/>
<path d="" fill="#C9FC01" transform="translate(0,0)"/>
<path d="" fill="#C9FC01" transform="translate(0,0)"/>
<path d="" fill="#C9FC01" transform="translate(0,0)"/>
<path d="" fill="#C9FC01" transform="translate(0,0)"/>
<path d="" fill="#C9FC01" transform="translate(0,0)"/>
<path d="" fill="#C9FC01" transform="translate(0,0)"/>
<path d="" fill="#C9FC01" transform="translate(0,0)"/>
<path d="" fill="#C9FC01" transform="translate(0,0)"/>
<path d="" fill="#C9FC01" transform="translate(0,0)"/>
</svg>
